<svg width="44" height="47" viewBox="0 0 44 47" fill="none" xmlns="http://www.w3.org/2000/svg">
<path d="M6.15077 29.8065C5.84444 29.1154 5.9544 28.2971 5.9544 27.5505V23.1411V7.55418V2.11927C5.9603 1.17073 6.18219 1.09587 7.0344 1.09382H21.3689C24.391 1.09382 27.9039 0.879498 30.7944 1.81369C35.4099 3.30675 39.0584 6.33389 40.6126 11.2458C40.9975 12.463 41.2979 13.8576 41.2999 15.1425V16.9884C41.2606 20.4308 39.2508 24.508 36.8817 26.8235C36.0903 27.5967 35.0624 28.3627 34.1326 28.9452C33.8086 29.1482 33.0035 29.5584 32.8788 29.9132C32.761 30.2526 33.087 30.6731 33.2627 30.9345L34.7875 33.2931L40.7245 42.4196L42.1138 44.5731C42.2385 44.7864 42.4564 45.1781 42.2807 45.4201C42.1236 45.6365 41.6347 45.5985 41.398 45.5985H32.4635C31.5759 45.5975 31.4866 45.5596 30.9839 44.7782L30.4351 43.9578L27.9471 40.0611L19.6341 27.0378L17.1285 23.1411L15.8865 21.0902C15.6616 20.4185 16.3165 19.674 16.6562 19.1418L19.7656 14.3222C20.0209 13.9223 20.7357 12.4958 21.2668 12.6989C21.5133 12.7922 21.7479 13.1798 21.8932 13.3993L22.8417 14.8349L26.2368 20.0647C26.5264 20.4934 27.2707 21.8193 27.6565 22.0069C28.1091 22.2264 29.0546 21.5578 29.4199 21.2789C30.8121 20.2185 31.7566 18.3881 31.7762 16.5782C31.7851 15.7332 31.6702 15.0031 31.356 14.2196C31.0683 13.5059 30.9368 13.1942 30.4547 12.5789C29.2353 11.0264 27.414 10.127 25.4926 10.1178H23.9217H20.878H16.3617C15.4653 10.1353 15.3818 10.5218 15.3799 11.3484V15.04C15.3759 15.3148 15.375 15.4933 15.2846 15.7578C15.105 16.2849 13.6794 18.423 13.2856 19.0393L8.6711 26.2175C8.12913 27.0655 6.8243 29.2764 6.15077 29.8065ZM17.4417 35.1389C18.3194 35.4824 19.5388 35.3419 20.4853 35.344C21.7921 35.3461 21.7951 35.8998 22.4539 36.9847L24.3331 40.0611C24.5451 40.4179 25.365 41.5808 25.2295 41.9654C25.1234 42.2668 24.5628 42.2145 24.3144 42.2145H13.9071C13.6136 42.2145 13.2925 42.193 13.0235 42.3345C12.1664 42.7878 11.3034 45.0304 10.5601 45.4499C10.2607 45.618 9.91604 45.5975 9.58713 45.5985H0.947124C0.688906 45.5985 0.146942 45.6508 0.0261784 45.3494C-0.109312 45.012 0.316796 44.4326 0.488615 44.1629L2.35407 41.2916L10.567 28.576L12.7564 25.192C12.9557 24.8946 13.3642 24.1204 13.7147 24.0691C14.2017 23.9984 14.9616 25.4084 15.2159 25.8073L18.0966 30.3193C18.395 30.7879 19.0941 31.7231 19.0901 32.2676C19.0872 32.6963 18.7917 33.0665 18.558 33.3956C18.1466 33.976 17.748 34.4836 17.4417 35.1389Z" stroke="black" stroke-width="2"/>
</svg>
